<svg width="56" height="56" viewBox="0 0 56 56" fill="none" xmlns="http://www.w3.org/2000/svg">
<rect x="0.5" y="0.5" width="55" height="55" rx="7.5" fill="#1A1A1A"/>
<rect x="0.5" y="0.5" width="55" height="55" rx="7.5" stroke="#262626"/>
<g clip-path="url(#clip0_0_132)">
<path d="M23.5502 37.7502C32.6045 37.7502 37.5583 30.2469 37.5583 23.7421C37.5583 23.5312 37.5536 23.3155 37.5442 23.1046C38.5079 22.4077 39.3395 21.5445 40 20.5555C39.1025 20.9548 38.1496 21.2156 37.1739 21.329C38.2013 20.7132 38.9705 19.7457 39.3391 18.606C38.3726 19.1788 37.3156 19.5829 36.2134 19.8009C35.4708 19.0118 34.489 18.4894 33.4197 18.3143C32.3504 18.1392 31.2532 18.3213 30.2977 18.8323C29.3423 19.3434 28.5818 20.1549 28.1338 21.1416C27.6859 22.1282 27.5754 23.2349 27.8195 24.2905C25.8625 24.1923 23.9479 23.6839 22.2 22.7983C20.452 21.9127 18.9097 20.6697 17.673 19.1498C17.0444 20.2335 16.8521 21.5159 17.135 22.7363C17.418 23.9568 18.1551 25.0237 19.1964 25.7202C18.4146 25.6954 17.65 25.4849 16.9656 25.1062V25.1671C16.9649 26.3044 17.3581 27.4068 18.0783 28.287C18.7985 29.1672 19.8013 29.7708 20.9162 29.9952C20.1921 30.1934 19.432 30.2222 18.6948 30.0796C19.0095 31.0577 19.6216 31.9131 20.4458 32.5266C21.27 33.14 22.2651 33.4808 23.2923 33.5015C21.5484 34.8714 19.3942 35.6144 17.1766 35.6109C16.7833 35.6103 16.3904 35.5861 16 35.5387C18.2529 36.984 20.8735 37.7516 23.5502 37.7502Z" fill="white"/>
</g>
<defs>
<clipPath id="clip0_0_132">
<rect width="24" height="24" fill="white" transform="translate(16 16)"/>
</clipPath>
</defs>
</svg>
